<?xml version="1.0" encoding="utf-8"?>
<!-- Generator: Adobe Illustrator 18.1.0, SVG Export Plug-In . SVG Version: 6.00 Build 0)  -->
<!DOCTYPE svg PUBLIC "-//W3C//DTD SVG 1.1//EN" "http://www.w3.org/Graphics/SVG/1.1/DTD/svg11.dtd">
<svg version="1.1" id="Layer_1" xmlns="http://www.w3.org/2000/svg" xmlns:xlink="http://www.w3.org/1999/xlink" x="0px" y="0px"
	 viewBox="0 0 432 432" enable-background="new 0 0 432 432" xml:space="preserve">
<path fill="#2E9F9C" d="M336.7,158.7c0,14.9-12.1,26.9-27,26.9h-51.2v-53.9h51.2C324.7,131.8,336.7,143.8,336.7,158.7z"/>
<path fill="#7F132F" d="M336.7,183.7c0,14.9-12.1,26.9-27,26.9h-51.2v-53.9h51.2C324.7,156.8,336.7,168.8,336.7,183.7z"/>
<polygon fill="#2E9F9C" points="258.5,298.4 336.8,298.4 297.7,219.9 "/>
<polyline fill="#2E9F9C" points="176.7,298.1 176.7,220.3 254.6,220.3 "/>
<polyline fill="#7F132F" points="254.6,298.1 176.7,298.1 176.7,220.3 "/>
<path fill="#7F132F" d="M166.2,235l-32.5,65.3c-21.4-0.8-38.5-18.4-38.5-40c0-22.1,17.9-40,40-40C147.7,220.3,158.8,226,166.2,235z"
	/>
<path fill="#2E9F9C" d="M133.1,220.7l33.7,64.6c-13.2,16.9-37.5,20.4-55,7.6c-17.9-13-21.8-38-8.8-55.9
	C110.3,227,121.5,221.3,133.1,220.7z"/>
<path fill="#2E9F9C" d="M173.3,158.5c0,14.9-12.1,26.9-27,26.9H95.2v-53.9h51.2C161.2,131.5,173.3,143.6,173.3,158.5z"/>
<polyline fill="#7F132F" points="174.2,210.7 95.2,210.7 95.2,131.7 "/>
<rect x="176.9" y="131.4" fill="#7F132F" width="77.7" height="25.3"/>
<rect x="176.9" y="158.4" fill="#7F132F" width="77.7" height="25.3"/>
<rect x="176.9" y="185.7" fill="#7F132F" width="77.7" height="25.3"/>
<rect x="176.9" y="131.4" fill="#2E9F9C" width="38.8" height="79.6"/>
</svg>
