<?xml version="1.0" encoding="utf-8"?>
<!-- Generator: Adobe Illustrator 18.1.0, SVG Export Plug-In . SVG Version: 6.00 Build 0)  -->
<!DOCTYPE svg PUBLIC "-//W3C//DTD SVG 1.1//EN" "http://www.w3.org/Graphics/SVG/1.1/DTD/svg11.dtd">
<svg version="1.1" id="Layer_1" xmlns="http://www.w3.org/2000/svg" xmlns:xlink="http://www.w3.org/1999/xlink" x="0px" y="0px"
	 viewBox="0 0 1024 250" enable-background="new 0 0 1024 250" xml:space="preserve">
<polygon fill="#7F132F" points="-70,118.8 45.6,234.4 184.9,95.1 66.1,-23.6 -70,-23.6 "/>
<polygon fill="#7F132F" points="1142.6,81.6 1027,197.2 887.7,57.9 1006.4,-60.8 1142.6,-60.8 "/>
<polygon fill="#2E9F9C" points="97.9,158 15.7,15.3 148.8,-61.3 231,81.3 201,192.6 "/>
<polygon fill="#2E9F9C" points="931.4,117.9 1013.6,-24.8 880.5,-101.4 798.3,41.2 828.3,152.6 "/>
<polygon fill="#2E9F9C" points="55.8,133.5 146.1,133.5 101,215.8 "/>
<polygon fill="#7F132F" points="211,78.3 157.1,110 187.4,171.7 244.2,129.7 "/>
<polygon fill="#7F132F" points="948,113.3 882.2,78.9 838.9,148.4 917,179.3 "/>
<polygon fill="#7F132F" points="164.3,202.1 186.4,150.5 232.5,202.1 "/>
<polygon fill="#2E9F9C" points="164.3,39.2 215.6,16.3 214.4,85.5 "/>
<polygon fill="#7F132F" points="815.9,157.9 784.2,111.5 852.5,100.3 "/>
<polygon fill="#7F132F" points="873.7,70.9 818.4,42 819.7,106.9 "/>
<polygon fill="#7F132F" points="802.7,129.1 834.4,82.7 766.1,71.5 "/>
<polygon fill="#2E9F9C" points="887.8,92.8 808.1,135.1 886.5,186.7 "/>
<polygon fill="#2E9F9C" points="967,66 1019,93.2 996.7,157.3 898.4,134 "/>
</svg>
