<?xml version="1.0" encoding="utf-8"?>
<!-- Generator: Adobe Illustrator 18.1.0, SVG Export Plug-In . SVG Version: 6.00 Build 0)  -->
<!DOCTYPE svg PUBLIC "-//W3C//DTD SVG 1.1//EN" "http://www.w3.org/Graphics/SVG/1.1/DTD/svg11.dtd">
<svg version="1.1" id="Layer_1" xmlns="http://www.w3.org/2000/svg" xmlns:xlink="http://www.w3.org/1999/xlink" x="0px" y="0px"
	 viewBox="0 0 288 216" enable-background="new 0 0 288 216" xml:space="preserve">
<rect x="67.9" y="31.8" transform="matrix(0.7071 0.7071 -0.7071 0.7071 118.494 -70.2128)" fill="#2C9F9C" width="152.3" height="152.3"/>
<g enable-background="new    ">
	<path fill="#FFFFFF" d="M129.2,76.7c0,5-4.1,9.2-9.2,9.2c-5,0-9.2-4.1-9.2-9.2s4.1-9.2,9.2-9.2C125.1,67.5,129.2,71.6,129.2,76.7z
		 M128.2,140.6h-16.4V94.4h16.4V140.6z"/>
	<path fill="#FFFFFF" d="M155.4,100.3h0.2c3.8-5.6,8.4-7.5,14.8-7.5c12.4,0,17.4,7.8,17.4,19.2v28.5h-16.4v-22.5
		c0-4.4,0.7-12.1-7.4-12.1c-6.7,0-8.5,4.9-8.5,10.7v23.9H139V94.4h16.4V100.3z"/>
</g>
</svg>
