<?xml version="1.0" encoding="utf-8"?>
<!-- Generator: Adobe Illustrator 18.1.0, SVG Export Plug-In . SVG Version: 6.00 Build 0)  -->
<!DOCTYPE svg PUBLIC "-//W3C//DTD SVG 1.1//EN" "http://www.w3.org/Graphics/SVG/1.1/DTD/svg11.dtd">
<svg version="1.1" id="Layer_1" xmlns="http://www.w3.org/2000/svg" xmlns:xlink="http://www.w3.org/1999/xlink" x="0px" y="0px"
	 viewBox="36.3 0 215.4 216" enable-background="new 36.3 0 215.4 216" xml:space="preserve">
<rect x="67.9" y="31.8" transform="matrix(0.7071 0.7071 -0.7071 0.7071 118.494 -70.2128)" fill="#7F1330" width="152.3" height="152.3"/>
<g enable-background="new    ">
	<path fill="#FFFFFF" d="M141.6,82.7c2,2.8,3,6,3,9.9c0,4-1,7.1-3,9.5c-1.1,1.3-2.8,2.6-4.9,3.7c3.3,1.2,5.8,3.1,7.5,5.7
		s2.5,5.8,2.5,9.5c0,3.8-1,7.3-2.9,10.3c-1.2,2-2.8,3.7-4.6,5.1c-2.1,1.6-4.5,2.7-7.3,3.3s-5.9,0.9-9.2,0.9H93.6V75.8h31.3
		C132.8,75.9,138.3,78.2,141.6,82.7z M106.5,87v14.3h15.7c2.8,0,5.1-0.5,6.9-1.6c1.8-1.1,2.6-3,2.6-5.7c0-3-1.2-5-3.5-6
		c-2-0.7-4.6-1-7.7-1C120.5,87,106.5,87,106.5,87z M106.5,112v17.3h15.7c2.8,0,5-0.4,6.6-1.1c2.8-1.4,4.3-4.1,4.3-8.1
		c0-3.4-1.4-5.7-4.1-6.9c-1.5-0.7-3.7-1.1-6.5-1.1L106.5,112L106.5,112z"/>
	<path fill="#FFFFFF" d="M188.5,93.6c3.3,1.5,6.1,3.9,8.3,7.1c2,2.8,3.2,6.1,3.8,9.9c0.3,2.2,0.5,5.4,0.4,9.5h-34.9
		c0.2,4.8,1.9,8.2,5,10.1c1.9,1.2,4.2,1.8,6.9,1.8c2.9,0,5.2-0.7,7-2.2c1-0.8,1.8-1.9,2.6-3.3h12.8c-0.3,2.8-1.9,5.7-4.6,8.7
		c-4.3,4.7-10.3,7-18,7c-6.4,0-12-2-16.9-5.9s-7.3-10.3-7.3-19.2c0-8.3,2.2-14.7,6.6-19.1c4.4-4.4,10.1-6.6,17.1-6.6
		C181.4,91.4,185.2,92.1,188.5,93.6z M159.8,79H191v6.7h-31.2V79z M169.8,104.5c-1.8,1.8-2.9,4.3-3.3,7.4H188
		c-0.2-3.3-1.3-5.8-3.3-7.6c-2-1.7-4.5-2.6-7.4-2.6C174.1,101.7,171.6,102.6,169.8,104.5z"/>
</g>
</svg>
